# xmcd CD database file
#
# Track frame offsets:
#	150
#	26475
#	59518
#	95502
#	117445
#	143350
#	159001
#	186643
#	218968
#
# Disc length: 3435 seconds
#
# Revision: 0
# Processed by: cddbd v1.5.2PL0 Copyright (c) Steve Scherf et al.
# Submitted via: CDex 1.51
#
DISCID=7a0d6909
DTITLE=DON GATO - ZAS!
DYEAR=2005
DGENRE=Fusion
TTITLE0=Oasis
TTITLE1=Cleo
TTITLE2=Manongo
TTITLE3=Lipstick X-Change
TTITLE4=Tumbes,Tumbes!
TTITLE5=After All
TTITLE6=Super X
TTITLE7=Amiga
TTITLE8=Talk Spirit,Walk Spirit
EXTD=
EXTT0=
EXTT1=
EXTT2=
EXTT3=
EXTT4=
EXTT5=
EXTT6=
EXTT7=
EXTT8=
PLAYORDER=
